<?xml version="1.0" encoding="UTF-8"?>
<svg id="Layer_1" data-name="Layer 1" xmlns="http://www.w3.org/2000/svg" version="1.1" viewBox="0 0 447.26 71.9">
  <defs>
    <style>
      .cls-1 {
        fill: #f15a29;
        stroke: #ed1c24;
        stroke-miterlimit: 10;
        stroke-width: 2px;
      }
    </style>
  </defs>
  <path class="cls-1" d="M86.68,22.62c0,5.89-1.77,10.88-5.3,14.96-3.81,4.35-8.61,6.53-14.42,6.53h-14.82v26.79h-16.32v-26.79h-15.1c-5.8,0-10.56-2.18-14.28-6.53-3.63-4.08-5.44-9.07-5.44-14.96V1h16.32v21.62c0,3.45,1.13,5.17,3.4,5.17h46.24c2.27,0,3.4-1.72,3.4-5.17V1h16.32v21.62Z"/>
  <path class="cls-1" d="M179.16,22.62c0,5.89-1.77,10.88-5.3,14.96-3.81,4.35-8.61,6.53-14.42,6.53h-14.82v26.79h-16.32v-26.79h-15.1c-5.8,0-10.56-2.18-14.28-6.53-3.63-4.08-5.44-9.07-5.44-14.96V1h16.32v21.62c0,3.45,1.13,5.17,3.4,5.17h46.24c2.27,0,3.4-1.72,3.4-5.17V1h16.32v21.62Z"/>
  <path class="cls-1" d="M271.78,70.9h-16.32v-22.17h-42.98v-16.32h42.98v-9.79c0-3.54-1.18-5.3-3.54-5.3h-46.24c-2.27,0-3.4,1.76-3.4,5.29v48.29h-16.32V22.58c0-5.88,1.84-10.95,5.51-15.2,3.67-4.25,8.41-6.38,14.21-6.38h46.24c5.89,0,10.68,2.13,14.35,6.38,3.67,4.25,5.51,9.32,5.51,15.2v48.32Z"/>
  <path class="cls-1" d="M369.42,70.9h-16.32V28.34l-29.1,41.48-29.1-41.48v42.57h-16.32V1h17.14l28.29,40.39L352.42,1h17v69.9Z"/>
  <path class="cls-1" d="M446.26,70.9h-70.04V1h16.32v53.58h53.72v16.32Z"/>
</svg>